<svg xmlns="http://www.w3.org/2000/svg" width="600" height="400" viewBox="0 0 600 400"><rect width="100%" height="100%" fill="#DDDDDD"/><path fill="#999999" d="M138.98 207.485q.41 0 .74.32l2.01 2.19q-1.67 2.07-4.11 3.17t-5.86 1.1q-3.06 0-5.5-1.04-2.45-1.05-4.18-2.91-1.72-1.86-2.65-4.44-.92-2.59-.92-5.65 0-3.09.99-5.67.99-2.57 2.78-4.43 1.8-1.87 4.29-2.9 2.49-1.04 5.51-1.04 3 0 5.33.99t3.96 2.58l-1.71 2.38q-.15.23-.39.4t-.66.17q-.28 0-.58-.16-.31-.16-.67-.4t-.84-.52q-.47-.29-1.1-.53-.62-.23-1.45-.4-.83-.16-1.91-.16-1.84 0-3.37.66-1.53.65-2.63 1.9-1.11 1.24-1.71 3.04-.61 1.79-.61 4.09 0 2.32.65 4.13.66 1.8 1.78 3.04 1.12 1.23 2.64 1.89 1.52.65 3.27.65 1.04 0 1.89-.11.84-.12 1.56-.36.71-.25 1.35-.64.63-.39 1.26-.96.19-.17.4-.27.21-.11.44-.11m5.58-21.75h4.69v28.23h-4.69zm13.09 16.24h8.86q0-.91-.26-1.72t-.77-1.41q-.51-.61-1.3-.96t-1.83-.35q-2.04 0-3.21 1.15-1.16 1.16-1.49 3.29m11.97 2.83h-12.06q.11 1.5.53 2.6.42 1.09 1.1 1.8.69.71 1.63 1.06.94.36 2.08.36t1.96-.27q.83-.27 1.45-.59.61-.32 1.08-.59.47-.26.9-.26.59 0 .88.43l1.35 1.71q-.78.92-1.75 1.53-.97.62-2.03.99-1.05.37-2.14.52-1.1.15-2.12.15-2.03 0-3.78-.67t-3.04-1.99q-1.29-1.33-2.04-3.27-.74-1.95-.74-4.51 0-2 .65-3.76.65-1.75 1.85-3.06 1.21-1.3 2.95-2.06t3.92-.76q1.84 0 3.4.59t2.68 1.72 1.76 2.77q.63 1.65.63 3.76 0 1.06-.22 1.43-.23.37-.88.37m14.92 4.12v-3.28q-2.04.09-3.42.35-1.39.26-2.23.66-.83.39-1.19.93-.36.53-.36 1.16 0 1.23.73 1.76t1.91.53q1.44 0 2.5-.52 1.05-.52 2.06-1.59m-9.92-10.24-.84-1.5q3.37-3.08 8.1-3.08 1.71 0 3.06.57 1.35.56 2.28 1.55.93 1 1.41 2.39.49 1.39.49 3.04v12.31h-2.13q-.67 0-1.03-.2t-.57-.81l-.42-1.4q-.74.66-1.44 1.17-.7.5-1.46.84t-1.63.52q-.86.18-1.91.18-1.23 0-2.28-.33-1.04-.33-1.8-1-.76-.66-1.18-1.65t-.42-2.3q0-.74.25-1.47t.81-1.4q.56-.66 1.45-1.25t2.2-1.03q1.3-.43 3.03-.71 1.72-.28 3.95-.33v-1.14q0-1.96-.84-2.9-.83-.94-2.41-.94-1.14 0-1.89.27-.75.26-1.32.59-.57.34-1.04.6-.46.27-1.03.27-.5 0-.84-.26-.34-.25-.55-.6m22.97-3.36.32 1.54q.59-.59 1.25-1.09.65-.51 1.39-.86.73-.35 1.56-.55.84-.2 1.83-.2 1.59 0 2.83.54 1.23.55 2.06 1.52.83.98 1.25 2.34.43 1.36.43 2.99v12.41h-4.69v-12.41q0-1.78-.82-2.76t-2.49-.98q-1.21 0-2.28.55-1.06.55-2.01 1.5v14.1h-4.7v-19.49h2.87q.92 0 1.2.85m17.42-9.59h4.7v28.23h-4.7zm9.54 8.74h4.71v19.49h-4.71zm5.36-5.69q0 .61-.25 1.14-.24.54-.65.94t-.96.63q-.55.24-1.18.24-.61 0-1.15-.24-.54-.23-.94-.63t-.64-.94q-.23-.53-.23-1.14 0-.62.23-1.17.24-.55.64-.95t.94-.64 1.15-.24q.63 0 1.18.24t.96.64.65.95q.25.55.25 1.17m8.21 6.54.32 1.54q.59-.59 1.25-1.09.65-.51 1.38-.86t1.57-.55 1.82-.2q1.6 0 2.83.54 1.24.55 2.07 1.52.82.98 1.25 2.34t.43 2.99v12.41h-4.7v-12.41q0-1.78-.81-2.76-.82-.98-2.49-.98-1.22 0-2.28.55-1.07.55-2.02 1.5v14.1h-4.69v-19.49h2.87q.91 0 1.2.85m21.07 6.65h8.85q0-.91-.25-1.72-.26-.81-.77-1.41-.52-.61-1.3-.96-.79-.35-1.84-.35-2.03 0-3.2 1.15-1.17 1.16-1.49 3.29m11.97 2.83h-12.07q.12 1.5.54 2.6.41 1.09 1.1 1.8.68.71 1.62 1.06.94.36 2.08.36t1.97-.27 1.44-.59q.62-.32 1.09-.59.46-.26.9-.26.59 0 .87.43l1.35 1.71q-.78.92-1.75 1.53-.97.62-2.02.99t-2.15.52q-1.09.15-2.12.15-2.03 0-3.78-.67-1.74-.67-3.04-1.99-1.29-1.33-2.03-3.27-.74-1.95-.74-4.51 0-2 .65-3.76.64-1.75 1.85-3.06 1.2-1.3 2.94-2.06t3.93-.76q1.84 0 3.4.59t2.68 1.72 1.75 2.77q.64 1.65.64 3.76 0 1.06-.23 1.43t-.87.37m17.57-8.22-1.06 1.69q-.19.3-.4.42-.21.13-.53.13-.34 0-.73-.19t-.91-.43q-.51-.24-1.16-.43-.66-.19-1.55-.19-1.39 0-2.18.59t-.79 1.54q0 .63.41 1.05.41.43 1.09.75.67.33 1.52.58.86.26 1.74.57.89.3 1.74.69.86.39 1.53.99.68.59 1.08 1.43.41.84.41 2.02 0 1.4-.5 2.59t-1.49 2.05-2.44 1.35q-1.46.48-3.36.48-1 0-1.96-.18t-1.85-.5q-.88-.32-1.63-.76t-1.32-.95l1.08-1.79q.21-.32.5-.49.28-.17.72-.17.43 0 .82.25.39.24.91.53.51.28 1.2.53.7.25 1.76.25.84 0 1.44-.2.59-.2.98-.53.39-.32.57-.75.18-.42.18-.88 0-.68-.4-1.12-.41-.44-1.09-.76-.67-.32-1.54-.58-.86-.26-1.76-.56-.91-.3-1.77-.71-.87-.41-1.54-1.04-.67-.62-1.08-1.54-.41-.91-.41-2.2 0-1.2.47-2.28.48-1.08 1.4-1.89t2.3-1.29q1.38-.49 3.18-.49 2.02 0 3.67.67 1.65.66 2.75 1.75m16.7 0-1.06 1.69q-.19.3-.4.42-.21.13-.53.13-.34 0-.73-.19t-.9-.43q-.52-.24-1.17-.43-.66-.19-1.55-.19-1.39 0-2.18.59t-.79 1.54q0 .63.41 1.05.41.43 1.09.75.67.33 1.53.58.85.26 1.73.57.89.3 1.74.69.86.39 1.53.99.68.59 1.09 1.43.4.84.4 2.02 0 1.4-.5 2.59t-1.49 2.05-2.44 1.35q-1.46.48-3.36.48-1 0-1.96-.18t-1.85-.5q-.88-.32-1.63-.76t-1.32-.95l1.08-1.79q.21-.32.5-.49.28-.17.72-.17t.83.25q.38.24.9.53.51.28 1.2.53.7.25 1.76.25.84 0 1.44-.2.59-.2.98-.53.39-.32.57-.75.18-.42.18-.88 0-.68-.4-1.12-.41-.44-1.09-.76-.67-.32-1.54-.58-.86-.26-1.76-.56-.91-.3-1.77-.71t-1.54-1.04q-.67-.62-1.08-1.54-.41-.91-.41-2.2 0-1.2.47-2.28.48-1.08 1.4-1.89t2.3-1.29q1.38-.49 3.18-.49 2.02 0 3.67.67 1.65.66 2.75 1.75m39.92 3.64q0 3.02-.99 5.6-1 2.57-2.83 4.45-1.82 1.89-4.38 2.94-2.57 1.05-5.7 1.05-3.12 0-5.69-1.05-2.56-1.05-4.39-2.94-1.84-1.88-2.84-4.45-1.01-2.58-1.01-5.6t1.01-5.59q1-2.58 2.84-4.46 1.83-1.88 4.39-2.93 2.57-1.06 5.69-1.06 2.09 0 3.93.49 1.84.48 3.38 1.36 1.54.89 2.77 2.15 1.22 1.26 2.08 2.82.85 1.56 1.3 3.39.44 1.82.44 3.83m-5.22 0q0-2.26-.61-4.05-.61-1.8-1.73-3.05-1.12-1.26-2.72-1.92-1.61-.67-3.62-.67-2.02 0-3.62.67-1.61.66-2.74 1.92-1.13 1.25-1.74 3.05-.61 1.79-.61 4.05t.61 4.06 1.74 3.04 2.74 1.91q1.6.66 3.62.66 2.01 0 3.62-.66 1.6-.67 2.72-1.91t1.73-3.04.61-4.06m22.86-5.75h3.7l-7.73 19.49h-4.26l-7.73-19.49h3.87q.54 0 .89.24.35.25.46.63l3.77 10.41q.3.91.53 1.79.23.87.4 1.75.19-.88.41-1.75.23-.88.56-1.79l3.83-10.41q.14-.38.48-.63.34-.24.82-.24m9.89 7.5h8.86q0-.91-.26-1.72-.25-.81-.77-1.41-.51-.61-1.3-.96t-1.83-.35q-2.04 0-3.2 1.15-1.17 1.16-1.5 3.29m11.97 2.83h-12.06q.11 1.5.53 2.6.42 1.09 1.1 1.8.69.71 1.63 1.06.94.36 2.08.36t1.97-.27q.82-.27 1.44-.59t1.08-.59q.47-.26.9-.26.59 0 .88.43l1.35 1.71q-.78.92-1.75 1.53-.97.62-2.02.99-1.06.37-2.15.52t-2.12.15q-2.03 0-3.78-.67t-3.04-1.99q-1.29-1.33-2.03-3.27-.74-1.95-.74-4.51 0-2 .64-3.76.65-1.75 1.85-3.06 1.21-1.3 2.95-2.06t3.92-.76q1.85 0 3.4.59 1.56.59 2.68 1.72t1.76 2.77q.64 1.65.64 3.76 0 1.06-.23 1.43t-.88.37m8.76-9.16.29 2.21q.91-1.75 2.16-2.75 1.26-1 2.97-1 1.35 0 2.16.59l-.3 3.52q-.09.34-.27.48-.19.15-.49.15-.28 0-.84-.1-.57-.09-1.1-.09-.78 0-1.38.22-.61.23-1.1.66-.48.43-.85 1.04-.37.6-.7 1.38v12.01h-4.69v-19.49h2.76q.72 0 1 .25.29.26.38.92m23.91-1.17h3.7l-7.73 19.49h-4.26l-7.73-19.49h3.87q.54 0 .89.24.35.25.46.63l3.77 10.41q.3.91.53 1.79.23.87.4 1.75.19-.88.41-1.75.23-.88.56-1.79l3.83-10.41q.14-.38.48-.63.34-.24.82-.24m6.34 0h4.71v19.49h-4.71zm5.36-5.69q0 .61-.25 1.14-.24.54-.65.94t-.96.63q-.55.24-1.18.24-.61 0-1.15-.24-.54-.23-.94-.63t-.64-.94q-.23-.53-.23-1.14 0-.62.23-1.17.24-.55.64-.95t.94-.64 1.15-.24q.63 0 1.18.24t.96.64.65.95q.25.55.25 1.17m7.85 13.19h8.85q0-.91-.26-1.72-.25-.81-.77-1.41-.51-.61-1.3-.96t-1.83-.35q-2.03 0-3.2 1.15-1.17 1.16-1.49 3.29m11.97 2.83h-12.07q.12 1.5.53 2.6.42 1.09 1.11 1.8.68.71 1.62 1.06.94.36 2.08.36t1.97-.27q.82-.27 1.44-.59t1.08-.59q.47-.26.91-.26.59 0 .87.43l1.35 1.71q-.78.92-1.75 1.53-.97.62-2.02.99-1.06.37-2.15.52t-2.12.15q-2.03 0-3.78-.67t-3.04-1.99q-1.29-1.33-2.03-3.27-.74-1.95-.74-4.51 0-2 .64-3.76.65-1.75 1.86-3.06 1.2-1.3 2.94-2.06t3.92-.76q1.85 0 3.41.59 1.55.59 2.67 1.72 1.13 1.13 1.76 2.77.64 1.65.64 3.76 0 1.06-.23 1.43t-.87.37m28.88-10.33h3.57l-6.2 19.49h-3.76q-.64 0-.89-.84l-3.5-11.26q-.17-.57-.31-1.13t-.24-1.13q-.11.57-.25 1.15-.15.58-.32 1.15l-3.55 11.22q-.23.84-1.01.84h-3.61l-6.17-19.49h3.74q.51 0 .87.24.37.25.48.63l2.79 10.41q.21.86.37 1.67.16.82.28 1.64.21-.82.45-1.64.23-.81.5-1.67l3.23-10.45q.11-.38.45-.63.33-.24.8-.24h2.07q.5 0 .85.24.35.25.46.63l3.14 10.45q.25.86.47 1.68.21.83.42 1.65.25-1.62.71-3.33l2.86-10.41q.14-.38.48-.63.34-.24.82-.24"/></svg>